<svg width="300" height="300" viewBox="0 0 300 300" fill="none" xmlns="http://www.w3.org/2000/svg">
<path d="M249.101 176.694C249.18 176.681 249.239 176.733 249.278 176.851C249.292 176.893 249.298 176.937 249.294 176.981C249.291 177.025 249.279 177.069 249.259 177.108C249.239 177.147 249.211 177.182 249.176 177.211C249.142 177.239 249.103 177.26 249.061 177.273L248.762 177.366C248.664 177.397 248.606 177.462 248.589 177.563C248.57 177.667 248.579 177.768 248.618 177.866C248.654 177.961 248.634 178.042 248.557 178.109C247.9 178.679 247.738 179.643 247.246 180.369C246.482 181.492 245.715 182.563 245.03 183.766C242.987 187.345 240.769 190.812 238.377 194.169C237.843 194.919 237.302 195.603 236.754 196.221C235.27 197.893 233.925 199.536 232.717 201.148C231.818 202.346 230.845 203.563 229.798 204.797C228.503 206.323 227.554 207.559 226.95 208.504C224.728 211.98 223.238 214.128 222.48 214.948C221.077 216.463 219.777 217.963 218.579 219.451C217.04 221.363 215.327 223.05 213.729 224.957C212.526 226.395 211.62 228.085 210.52 229.532C207.14 233.98 203.416 238.259 199.82 242.467C197.059 245.69 193.734 248.723 190.809 251.813C188.523 254.226 185.268 256.125 183.063 258.101C180.71 260.213 178.589 262.407 175.831 263.975C173.693 265.19 171.751 266.857 169.529 267.974C168.161 268.659 166.65 269.502 164.995 270.503C162.784 271.837 160.443 273 157.96 273.981C156.257 274.652 154.499 275.581 152.685 276.768C150.599 278.131 148.223 278.9 145.576 279.392C142.659 279.933 140.008 280.665 136.82 280.813C134.786 280.908 132.8 280.977 130.862 281.021C130.794 281.023 130.736 281.048 130.688 281.097C130.671 281.116 130.649 281.131 130.624 281.143C130.578 281.164 130.533 281.162 130.488 281.137C130.465 281.124 130.446 281.105 130.43 281.082C130.39 281.018 130.333 280.986 130.26 280.984C128.242 280.93 126.438 280.9 124.849 280.894C123.064 280.888 121.388 280.763 119.819 280.518C117.831 280.209 115.838 279.738 113.841 279.103C113.558 279.012 113.262 278.961 112.953 278.949C112.914 278.948 112.88 278.935 112.849 278.912C112.802 278.873 112.787 278.823 112.802 278.761C112.805 278.75 112.81 278.739 112.817 278.73C112.824 278.721 112.833 278.714 112.843 278.709L113.04 278.611C113.084 278.59 113.083 278.57 113.037 278.553C111.879 278.127 110.713 277.681 109.538 277.216C107.467 276.394 105.513 275.312 103.494 274.343C102.502 273.868 101.557 273.333 100.658 272.737C98.8898 271.568 97.1305 270.572 95.5361 269.14C93.7247 267.511 91.8091 266.105 89.9572 264.571C88.1998 263.117 86.6006 261.384 85.1596 259.374C84.6599 258.68 84.1015 258.067 83.4842 257.537C82.5582 256.747 81.4355 257.398 80.7757 258.13C77.4799 261.787 74.0191 265.375 71.0473 269.192C69.4819 271.2 67.5229 272.809 65.9198 274.751C63.767 277.358 61.1801 279.453 58.2112 281.727C55.169 284.058 52.0873 285.971 48.9661 287.468C47.8752 287.992 47.146 288.82 46.1014 289.335C43.9369 290.405 41.8863 290.96 39.9495 290.999C38.8808 291.018 37.8709 290.844 36.9199 290.478C36.4762 290.308 36.0489 290.185 35.638 290.107C35.0574 290.001 34.604 289.681 34.278 289.147C34.1044 288.859 34.0127 288.523 34.0031 288.137C33.9607 286.331 34.3542 284.646 35.1837 283.082C36.2582 281.058 37.4099 279.248 38.6387 277.65C39.2213 276.892 40.5215 275.325 42.5393 272.948C44.5764 270.549 46.5817 268.041 48.6825 265.746C50.2132 264.076 51.4893 262.094 53.0837 260.63C54.5652 259.267 56.1567 258.13 57.5717 256.593C59.1381 254.894 60.3689 253.7 61.264 253.011C63.2953 251.446 65.4742 249.947 67.4419 248.268C68.3949 247.454 69.3025 246.784 70.1648 246.257C70.8072 245.866 71.6936 245.437 72.824 244.973C73.2947 244.778 73.6979 244.416 74.0336 243.887C74.6817 242.857 74.3143 240.583 74.0394 239.498C73.6863 238.109 73.1742 236.723 72.9166 235.296C72.7806 234.541 72.5202 233.832 72.3379 233.077C71.4447 229.334 70.6027 225.716 69.8118 222.223C69.5224 220.947 69.2967 219.514 69.2012 218.157C69.0469 215.981 68.8231 213.799 68.5299 211.612C68.3331 210.151 68.3678 208.724 68.3071 207.26C68.2724 206.366 68.0872 205.495 68.0727 204.569C68.0708 204.436 68.1103 204.318 68.1913 204.216C68.3495 204.013 68.3437 203.813 68.174 203.614C68.0993 203.526 68.0583 203.414 68.0582 203.298C68.0544 202.118 68.0322 200.918 67.9917 199.699C67.984 199.46 67.9579 199.458 67.9135 199.693C67.9039 199.739 67.9029 199.785 67.9106 199.829C67.9319 199.997 67.8904 200.014 67.7862 199.881C67.738 199.821 67.7235 199.76 67.7428 199.696C67.9569 199.007 68.0312 198.333 67.9656 197.673C67.7573 195.617 67.8161 193.516 68.1421 191.371C68.1962 191.016 68.1846 190.659 68.1074 190.3C67.9512 189.574 68.3649 189.091 68.3592 188.35C68.3399 185.564 68.4566 183.373 68.7093 181.776C69.3169 177.931 69.9979 174.517 70.7522 171.535C71.219 169.685 71.6058 167.891 71.9125 166.153C72.3659 163.572 72.9427 161.182 73.6429 158.983C74.2593 157.041 74.6239 154.793 75.301 153.117C76.2327 150.808 77.0545 148.613 77.7664 146.531C78.5129 144.352 79.6733 142.312 79.9568 139.977C80.0398 139.304 79.8912 138.69 79.5112 138.134C77.1346 134.648 74.9856 130.897 73.0642 126.881C72.5549 125.813 72.2453 124.673 71.6839 123.614C70.9914 122.306 70.2516 121.093 69.4645 119.976C68.3071 118.33 67.9106 116.733 68.1711 114.794C68.308 113.779 68.4305 112.743 68.5386 111.686C68.5521 111.555 68.4932 111.488 68.3621 111.487C68.254 111.483 68.1479 111.457 68.0438 111.408C67.9454 111.364 67.8701 111.296 67.8181 111.203L66.6027 109.053C66.5258 108.917 66.4928 108.761 66.5084 108.606C66.5239 108.45 66.5872 108.303 66.6895 108.185C66.9654 107.867 67.2287 107.509 67.4795 107.111C67.6396 106.859 67.7727 106.872 67.8788 107.152C68.0814 107.686 68.4643 108.156 69.0276 108.561C69.1086 108.619 69.1568 108.697 69.1723 108.795C69.2417 109.256 69.6729 109.441 69.8986 109.831C69.9228 109.874 69.9565 109.91 69.9972 109.937C70.0379 109.964 70.0843 109.981 70.133 109.988L71.192 110.124C71.2846 110.135 71.3695 110.167 71.4467 110.219C72.0948 110.642 72.5212 111.274 72.7256 112.117C73.2465 114.256 74.0249 116.18 75.0116 118.243C76.5713 121.498 77.8416 124.852 79.2624 128.203C79.6887 129.206 80.0899 130.328 80.4661 131.568C80.958 133.183 82.9141 133.218 83.7446 131.898C84.2153 131.152 84.5751 130.398 84.8239 129.638C85.4518 127.714 86.3517 125.992 87.3587 124.256C88.5451 122.213 89.3524 119.664 90.4838 117.855C91.3326 116.493 91.9451 115.398 92.3213 114.568C93.1142 112.815 93.7893 111.451 94.3468 110.477C96.3975 106.885 98.2368 103.509 99.865 100.349C100.49 99.1423 101.161 98.0109 101.833 96.9084C104.034 93.2972 106.232 89.6763 108.427 86.0457C109.13 84.8796 109.92 83.8958 110.661 82.8164C112.31 80.4089 113.944 77.9648 115.563 75.484C116.265 74.4095 117.042 73.3543 117.892 72.3183C118.983 70.9902 119.869 69.4884 120.983 68.1689C123.616 65.0534 126.156 61.6582 128.602 57.9833C130.161 55.6395 132.658 53.3506 134.539 50.865C135.542 49.5397 136.734 48.2308 138.113 46.9383C138.408 46.6605 138.676 46.3345 138.917 45.9603C139.244 45.4539 139.707 45.1327 140.031 44.6061C141.337 42.4918 142.92 40.719 144.78 39.2876C145.264 38.9153 145.71 38.4966 146.117 38.0317C147.347 36.6225 148.484 35.2539 149.928 34.0298C150.155 33.8369 150.187 33.5997 150.023 33.318C149.948 33.1907 149.982 33.1087 150.124 33.0721L150.341 33.0142C150.453 32.9852 150.552 32.9303 150.637 32.8492C151.131 32.3718 151.898 31.9146 152.138 31.2838C152.173 31.197 152.232 31.1333 152.315 31.0928C152.741 30.8825 153.121 30.6211 153.455 30.3086C154.983 28.8676 156.393 27.7063 157.685 26.8247C158.843 26.0357 159.727 25.3538 160.339 24.7789C163.543 21.7734 166.925 19.282 170.484 17.3047C174.471 15.091 178.334 12.5881 182.843 11.6679C183.983 11.4345 185.171 11.0824 186.408 10.6117C188.607 9.77544 191.066 9.26906 193.315 9.03468C194.715 8.88806 196.264 9.20636 197.962 9.98957C200.07 10.9638 202.217 11.9495 204.4 12.9469C205.856 13.6124 207.114 14.657 208.44 15.5164C209.635 16.289 210.593 17.296 211.744 18.1728C213.038 19.1537 214.184 20.3603 215.422 21.4252C218.374 23.9658 220.81 26.79 223.22 29.808C224.876 31.8799 226.794 33.8012 228.432 35.8702C230.385 38.3385 232.017 41.4838 233.611 44.253C234.123 45.1423 234.549 46.0181 234.89 46.8805C236.401 50.6827 238.565 54.1406 239.891 58.0064C240.753 60.521 241.679 62.8215 242.689 65.1798C243.046 66.0093 243.352 67.0741 243.609 68.3743C244.039 70.5503 244.417 72.6598 244.743 74.7027C244.953 76.0145 245.409 77.2558 246.109 78.4268C246.449 78.992 246.901 79.0943 247.466 78.7335C248.239 78.2416 248.985 77.715 249.454 76.899C250.334 75.3653 251.473 74.1404 252.871 73.2241C254.48 72.1679 255.91 71.0104 257.484 69.8414C257.847 69.5713 258.227 69.5424 258.624 69.7546C258.707 69.797 258.789 69.8366 258.87 69.8732C259.267 70.0546 259.306 70.2928 258.986 70.588C258.398 71.1348 258.265 72.0174 257.614 72.5354C257.381 72.7206 257.195 72.8913 257.059 73.0475C255.085 75.3161 252.764 77.1044 250.747 78.8551C249.569 79.8794 248.962 81.1265 248.927 82.5965C248.884 84.4513 249.784 86.6707 250.591 88.4561C251.225 89.8537 251.482 91.3121 251.83 92.8023C251.963 93.3734 252.062 93.9569 252.128 94.553C252.402 97.0512 252.882 99.4982 253.569 101.894C254.338 104.579 256.983 105.271 258.705 107.169C260.328 108.963 262.091 110.971 262.935 113.142C263.3 114.076 263.838 114.942 264.09 115.908C264.43 117.206 264.779 118.454 265.138 119.652C265.504 120.877 265.736 122.101 265.835 123.324C266.14 127.125 266.122 130.778 265.783 134.285C265.596 136.224 265.423 138.162 265.265 140.099C265.094 142.199 264.29 144.775 263.404 146.769C262.698 148.358 262.201 149.92 261.914 151.453C261.698 152.618 261.435 153.623 261.124 154.466C260.705 155.61 260.232 156.821 259.703 158.1C258.69 160.56 257.16 162.666 256.075 165.074C255.641 166.032 255.198 166.83 254.746 167.467C252.881 170.09 251.181 172.863 249.645 175.786C249.474 176.11 249.266 176.298 249.029 176.567C248.932 176.677 248.956 176.72 249.101 176.694ZM194.284 89.1824C193.173 88.7503 192.445 87.9796 192.099 86.8704C192.053 86.7257 192.042 86.5791 192.065 86.4306C192.105 86.1441 191.906 85.6927 191.885 85.3628C191.795 83.8967 191.963 82.4586 192.392 81.0484C193.177 78.4577 193.933 75.7434 194.66 72.9058C194.976 71.676 195.609 70.5793 195.933 69.3321C196.705 66.3903 197.442 64.0947 198.144 62.4453C198.827 60.848 199.467 59.1745 200.063 57.4248C200.584 55.897 200.99 54.3084 201.281 52.659C201.555 51.1003 201.863 49.4577 202.204 47.7312C202.594 45.7558 202.931 43.4399 203.217 40.7836C203.44 38.6973 203.298 36.7325 203.584 34.6983C203.665 34.1224 203.428 33.6161 203.422 33.0373C203.414 31.9281 203.305 30.8285 203.095 29.7386C202.808 28.259 202.588 26.5132 202.435 24.5011C202.253 22.0502 201.269 19.8713 200.199 17.1253C199.585 15.5511 198.57 14.1767 196.987 13.6182C196.341 13.3906 195.714 13.1716 195.106 12.9613C194.242 12.6604 193.138 12.5572 191.796 12.6517C191.022 12.7057 190.436 12.9922 190.036 13.5111C189.598 14.0841 189.035 14.5384 188.346 14.874C188.103 14.9936 187.952 15.1856 187.892 15.4499C187.867 15.5623 187.818 15.6689 187.747 15.7624C186.746 17.0934 185.849 18.4727 185.056 19.9003C184.133 21.5554 182.782 23.1787 182.134 24.8744C181.354 26.9192 180.559 29.0798 179.747 31.3561C179.635 31.6706 179.554 31.9879 179.503 32.3081C179.37 33.1444 178.994 33.8996 178.835 34.7561C178.364 37.3257 178.079 39.521 177.979 41.342C177.95 41.861 177.897 42.3452 177.819 42.7946C177.715 43.3984 177.653 44.0042 177.634 44.6118C177.591 45.969 177.374 47.2479 177.516 48.6224C177.67 50.1194 177.663 51.6144 177.495 53.1075C177.389 54.0605 177.444 55.1466 177.66 56.3658C177.847 57.4133 177.97 58.3112 178.028 59.0597C178.17 60.9039 178.429 63.2497 178.803 66.097C179.058 68.0435 179.464 69.7729 180.021 71.2853C180.866 73.58 181.431 75.8775 182.223 78.0796C183.454 81.4805 184.74 84.9683 186.081 88.5429C186.561 89.8277 187.166 91.0257 187.739 92.2555C188.165 93.1679 188.564 94.0968 188.937 95.042C190.343 98.6128 192.07 101.914 193.726 105.306C194.223 106.327 194.579 107.418 195.155 108.405C196.727 111.098 198.215 113.899 199.617 116.808C200.223 118.066 200.965 119.178 201.845 120.144C202.086 120.409 202.334 120.415 202.589 120.164C204.768 118.026 206.837 116.18 209.172 114.207C211.273 112.436 213.229 110.199 215.347 108.373C216.049 107.771 216.739 107.107 217.416 106.379C219.001 104.684 220.94 103.468 222.85 102.189C225.069 100.702 226.895 98.7459 228.643 96.6335C230.478 94.4131 232.509 92.4185 234.737 90.6495C236.977 88.8728 239.3 86.8646 241.473 84.9259C242.969 83.589 241.722 80.7996 240.773 79.4425C240.2 78.6207 239.203 77.8076 237.781 77.0031C235.939 75.9595 234.429 75.2071 233.253 74.7461C231.912 74.2214 230.2 73.8645 228.116 73.6755C227.071 73.5829 226.095 73.634 225.188 73.8288C222.941 74.3092 220.845 74.8175 218.9 75.3538C216.157 76.1061 214.201 77.5298 211.895 79.0055C209.438 80.5797 207.091 82.2695 204.993 84.1388C202.621 86.2541 197.785 90.5424 194.284 89.1824ZM127.427 193.831C127.4 193.834 127.376 193.852 127.354 193.883C127.329 193.919 127.33 193.955 127.357 193.99C127.452 194.113 127.571 194.16 127.716 194.131C127.726 194.13 127.734 194.125 127.739 194.117C127.755 194.096 127.765 194.073 127.771 194.048C127.785 193.968 127.83 193.941 127.907 193.966C128.276 194.092 128.643 194.228 129.01 194.375C130.491 194.965 132.068 193.394 133.046 192.369C134.155 191.21 135.242 190 136.304 188.741C137.662 187.135 138.576 185.071 139.69 183.269C139.948 182.852 140.387 182.618 140.723 182.256C140.956 182.001 141.234 181.805 141.556 181.666C143.475 180.835 146.018 178.679 145.344 176.318C145.138 175.601 144.915 174.905 144.676 174.232C144.288 173.138 144.638 172.392 145.338 171.512C146.039 170.632 147.109 170.875 147.789 171.59C148.129 171.949 148.521 172.258 148.967 172.516C149.043 172.56 149.129 172.583 149.216 172.583C149.619 172.577 150.005 172.49 150.373 172.322C152.661 171.279 154.162 169.821 154.876 167.95C155.307 166.821 156.091 165.91 156.982 165.103C159.271 163.028 161.794 161.057 163.782 158.682C165.478 156.653 167.179 154.726 169.26 152.926C170.279 152.044 171.222 150.993 172.174 149.983C174.179 147.854 176.511 145.918 178.47 143.866C179.495 142.794 180.086 141.354 180.244 139.546C180.281 139.137 180.419 138.754 180.658 138.397C180.714 138.312 180.793 138.262 180.895 138.247C181.621 138.139 182.333 138.004 183.034 137.842C184.061 137.604 185.21 137.384 185.974 136.632C188.9 133.744 191.711 131.016 194.406 128.446C194.83 128.043 195.176 127.653 195.444 127.277C196 126.504 196.477 125.584 197.166 124.916C197.806 124.3 198.949 123.729 198.891 122.749C198.813 121.374 197.89 120.089 197.131 118.94C196.069 117.335 195.303 115.497 194.348 113.88C193.69 112.77 193.142 111.656 192.704 110.537C191.402 107.21 189.732 104.009 188.106 100.734C187.313 99.1365 186.758 97.3743 185.968 95.7481C184.531 92.7888 183.64 90.8029 183.297 89.7901C181.738 85.195 180.246 81.2076 178.821 77.8278C178.222 76.407 177.582 75.0702 177.281 73.5742C177.079 72.5672 176.786 71.621 176.702 70.5417C176.627 69.5501 176.41 68.4457 176.051 67.2285C175.754 66.2157 175.524 65.1431 175.36 64.0107C175.153 62.5813 175.026 61.2319 174.978 59.9625C174.94 58.9642 174.474 58.1453 174.532 57.1065C174.578 56.2471 174.503 55.3877 174.605 54.5312C174.691 53.8001 174.663 53.1288 174.521 52.5172C174.405 52.0195 174.364 51.5209 174.399 51.0212C174.482 49.8098 174.613 48.6706 174.793 47.6039C174.899 46.973 174.933 46.3789 174.897 45.8214C174.796 44.2878 175.01 42.6268 175.204 41.1453C175.308 40.338 174.975 39.3686 175.218 38.6857C175.625 37.5398 175.904 36.4393 176.054 35.3841C176.209 34.2922 176.658 32.6689 177.403 30.5141C177.576 30.0164 177.382 29.5331 177.654 29.0702C178.289 28.0015 178.813 26.818 179.226 25.5197C179.517 24.6053 179.885 23.7189 180.331 22.8604C181.664 20.2851 182.544 18.7052 182.97 18.1207C183.522 17.3664 184.073 16.6112 184.625 15.855C184.893 15.4884 185.012 15.0901 184.981 14.6599C184.973 14.5634 184.926 14.495 184.839 14.4544C184.293 14.1998 183.773 14.1439 183.277 14.2866C181.108 14.9136 178.931 15.8829 176.743 17.1947C175.95 17.6722 174.969 17.9644 174.306 18.5518C173.899 18.9126 173.444 19.2174 172.941 19.4662C171.419 20.2186 169.897 20.9883 168.548 22.0531C167.661 22.7534 166.727 23.3765 165.747 23.9224C164.034 24.8773 162.499 26.0521 161.14 27.4468C160.897 27.6957 160.31 28.1558 159.378 28.8271C159.095 29.0297 158.973 29.3856 158.753 29.5505C157.899 30.189 157.076 30.8671 156.285 31.5847C156.204 31.658 156.151 31.7549 156.135 31.8596C156.033 32.4991 155.264 32.4846 154.939 33.0721C154.885 33.1685 154.808 33.2389 154.708 33.2833L153.177 33.943C153.007 34.0163 153.014 34.0607 153.197 34.0761C153.543 34.107 153.897 34.0221 154.259 33.8215C154.278 33.8107 154.299 33.8039 154.321 33.8012C154.343 33.7986 154.365 33.8003 154.386 33.8062C154.407 33.8122 154.426 33.8222 154.443 33.8357C154.46 33.8493 154.475 33.8661 154.485 33.8852C154.526 33.9565 154.52 34.0241 154.468 34.0877C154.211 34.4079 153.825 34.6105 153.31 34.6954C153.177 34.7166 153.142 34.788 153.203 34.9095C153.232 34.9674 153.234 35.0262 153.209 35.086C153.167 35.1844 153.092 35.2384 152.986 35.2481L152.19 35.3088C152.143 35.3125 152.097 35.3283 152.057 35.3545C152.018 35.3808 151.985 35.4168 151.963 35.4591C151.941 35.5013 151.93 35.5485 151.932 35.5961C151.933 35.6437 151.946 35.6903 151.971 35.7313C152.117 35.984 152.313 36.1972 152.558 36.3708C152.606 36.4055 152.622 36.4518 152.604 36.5097C152.577 36.6003 152.519 36.6293 152.431 36.5965C152.078 36.4615 151.702 36.3978 151.305 36.4055C151.153 36.4094 151.044 36.4759 150.978 36.6052C150.949 36.6624 150.941 36.7283 150.957 36.7913C150.972 36.8544 151.009 36.9104 151.062 36.9495C151.153 37.0151 151.177 37.0971 151.134 37.1955C151.092 37.2919 151.018 37.3382 150.911 37.3344C150.376 37.3141 149.829 37.3749 149.569 37.8986C149.376 38.2883 149.13 38.6558 148.831 39.0011C148.775 39.0648 148.708 39.1111 148.631 39.14C148.332 39.25 148.151 39.3454 148.087 39.4265C146.803 41.1077 145.593 42.7368 144.117 44.3456C141.582 47.109 139.042 50.3094 136.782 52.8442C134.533 55.3675 132.94 57.2773 132.005 58.5736C131.065 59.8777 130.1 61.2116 129.108 62.5755C127.285 65.0843 125.019 67.7146 122.971 70.3825C122.764 70.6526 122.566 70.9275 122.375 71.2072C121.622 72.3203 120.934 73.2896 120.311 74.1153C117.593 77.7207 114.917 81.7747 112.282 86.2772C111.408 87.7703 110.195 89.1737 109.22 90.6553C108.057 92.4185 106.87 94.2202 105.658 96.0606C104.927 97.1698 104.302 98.2674 103.783 99.3535C102.641 101.738 101.401 103.975 100.062 106.064C99.429 107.053 98.8242 108.079 98.2474 109.14C97.6764 110.187 97.1064 111.238 96.5373 112.291C95.7445 113.759 94.9661 115.35 94.2022 117.063C93.4788 118.689 92.6859 120.355 91.8236 122.06C91.4127 122.874 90.97 123.974 90.4954 125.361C90.3237 125.861 89.9746 126.645 89.4479 127.714C89.2242 128.167 88.8075 128.916 88.1979 129.959C86.9999 132.008 86.0383 134.253 85.3129 136.693C84.9686 137.856 84.6648 139.346 85.1364 140.397C85.7692 141.799 86.3894 143.264 86.997 144.792C87.9548 147.197 89.5376 149.355 90.345 151.824C90.8629 153.412 91.3606 154.989 92.0262 156.503C92.5374 157.66 93.0177 158.816 93.4672 159.969C94.1096 161.61 94.9342 163.23 95.7908 164.776C96.3193 165.727 96.8489 166.961 97.3794 168.479C98.6468 172.099 99.9923 175.54 101.413 178.92C101.792 179.825 102.406 180.462 102.753 181.42C103.715 184.076 104.696 186.812 105.696 189.629C106.188 191.014 106.728 192.38 107.316 193.726C107.914 195.096 108.434 196.456 108.876 197.806C109.509 199.739 110.056 201.603 110.919 203.443C111.573 204.842 112.239 206.409 112.918 208.145C113.471 209.56 114.272 210.897 115.687 211.377C115.843 211.431 116.013 211.422 116.163 211.353C116.312 211.284 116.43 211.16 116.492 211.007C117.071 209.556 117.003 208.063 116.289 206.528C115.822 205.523 115.481 204.549 115.265 203.608C115.037 202.622 115.439 201.892 116.472 201.418C116.972 201.189 117.606 201.464 117.95 201.826C119.137 203.073 120.326 204.375 122.004 204.887C122.114 204.922 122.213 204.903 122.302 204.832C123.29 204.047 124.168 203.046 124.935 201.828C125.702 200.61 125.882 198.964 125.569 197.61C125.336 196.595 125.281 195.558 125.404 194.499C125.41 194.451 125.425 194.406 125.448 194.364C125.471 194.323 125.503 194.287 125.54 194.259C126.067 193.852 126.696 193.694 127.427 193.787C127.517 193.799 127.517 193.813 127.427 193.831ZM204.611 16.3179C204.041 16.208 203.804 16.451 203.376 16.723C203.281 16.7809 203.256 16.861 203.301 16.9632C203.322 17.0134 203.356 17.052 203.402 17.079C203.487 17.1272 203.529 17.2005 203.529 17.2989C203.531 17.4629 203.582 17.621 203.683 17.7734C204.18 18.5287 204.878 19.2405 204.973 20.1578C205.057 20.9825 205.025 21.8043 205.179 22.6261C205.584 24.8271 205.954 27.1912 206.29 29.7183C206.407 30.6038 206.44 31.5365 206.388 32.5165C206.321 33.7607 206.332 35.1651 206.423 36.7296C206.467 37.5263 206.414 38.3905 206.264 39.3223C206.119 40.2 206.016 41.0517 205.954 41.8774C205.757 44.4662 205.492 47.0473 205.158 49.6207C204.912 51.5276 204.389 53.4461 204.015 55.3704C203.734 56.8191 203.132 58.5447 202.21 60.5471C201.128 62.8967 200.349 65.1855 199.571 67.5699C198.992 69.3427 198.496 71.2438 198.083 73.2732C197.838 74.4731 197.486 75.6894 197.027 76.9221C196.284 78.9245 195.719 80.9066 195.152 82.8743C194.874 83.8331 194.76 84.8005 194.808 85.7766C194.813 85.8748 194.854 85.9677 194.923 86.0372C194.993 86.1067 195.086 86.1479 195.184 86.1528C196.008 86.1875 196.863 85.9406 197.751 85.412C199.88 84.1446 201.938 82.854 203.879 81.306C206.266 79.4077 208.813 77.5741 211.521 75.8052C212.528 75.1483 213.573 74.5783 214.647 74.1066C215.339 73.8018 216.004 73.4854 216.64 73.1575C217.211 72.8643 217.808 72.6579 218.431 72.5383C219.662 72.301 220.884 72.0135 222.098 71.676C223.626 71.2506 225.379 70.9786 226.982 71.1001C227.127 71.1117 227.267 71.0885 227.402 71.0307C227.514 70.9863 227.527 70.9217 227.442 70.8368C227.379 70.7712 227.364 70.6941 227.399 70.6053C227.422 70.5474 227.462 70.505 227.517 70.478C227.538 70.4688 227.561 70.4643 227.584 70.4649C227.607 70.4655 227.629 70.4711 227.65 70.4814C227.67 70.4917 227.688 70.5063 227.701 70.5243C227.715 70.5422 227.724 70.563 227.729 70.5851C227.746 70.6738 227.783 70.7529 227.839 70.8223C227.862 70.853 227.893 70.8767 227.929 70.8909C227.965 70.9052 228.004 70.9095 228.041 70.9034C228.107 70.8937 228.17 70.8735 228.232 70.8426C228.313 70.8002 228.399 70.7876 228.49 70.805C229.709 71.0423 230.915 71.2602 232.107 71.4589C233.082 71.621 234.19 72.0319 234.992 72.408C236.614 73.172 238.26 73.9475 239.928 74.7345C240.031 74.783 240.149 74.7902 240.257 74.7547C240.365 74.7192 240.456 74.6436 240.51 74.5435C240.86 73.9041 240.944 73.4324 240.918 72.735C240.818 70.0864 240.502 68.0898 239.972 66.7452C239.268 64.9512 239.051 62.9719 238.406 61.1142C237.756 59.243 236.986 57.392 236.097 55.5613C235.003 53.3014 234.234 51.2267 233.25 49.0594C231.645 45.5195 229.873 42.3953 227.934 39.6869C226.553 37.7539 224.249 34.8449 221.021 30.9597C219.958 29.6807 218.647 28.2484 217.086 26.6627C215.126 24.6699 213.429 22.981 211.996 21.5959C210.266 19.9234 208.185 18.3599 205.754 16.9053C205.722 16.8861 205.704 16.8571 205.702 16.8185C205.7 16.7896 205.71 16.7655 205.731 16.7462C205.783 16.698 205.792 16.644 205.757 16.5842C205.719 16.5205 205.663 16.4858 205.59 16.48C205.267 16.451 204.986 16.5301 204.745 16.7173C204.669 16.7732 204.585 16.7973 204.493 16.7896C204.391 16.78 204.309 16.7337 204.247 16.6507C204.166 16.5446 204.192 16.4983 204.325 16.5118C204.435 16.5215 204.537 16.5031 204.632 16.4568C204.759 16.3932 204.752 16.3469 204.611 16.3179ZM216.658 112.629C216.357 112.977 216.062 113.309 215.7 113.599C214.55 114.521 213.361 115.46 212.132 116.417C210.656 117.569 209.296 119.126 207.768 120.355C206.712 121.206 205.19 122.317 204.583 123.544C204.532 123.646 204.521 123.753 204.548 123.863C204.664 124.324 204.948 124.659 205.401 124.87C205.509 124.922 205.621 124.93 205.737 124.896C207.337 124.424 208.237 123.021 209.4 121.947C211.814 119.721 214.3 117.474 216.86 115.208C217.934 114.259 219.143 113.518 220.333 112.708C221.147 112.154 221.985 111.522 222.847 110.812C226.105 108.129 229.698 105.896 233.626 104.114C234.699 103.625 235.793 103.306 236.884 102.861C237.796 102.49 238.693 102.476 239.645 102.383C241.01 102.253 241.427 100.479 241.552 99.3853C241.71 97.9945 241.879 96.6528 242.058 95.3603C242.147 94.7237 242.201 94.0447 242.22 93.3232C242.252 92.1484 242.57 89.7582 241.557 88.9712C240.776 88.3635 239.983 89.6483 239.567 90.0794C237.246 92.4812 234.845 94.9108 232.364 97.3685C231.145 98.578 229.878 99.8686 228.562 101.24C226.409 103.484 224.07 105.665 221.545 107.783C219.76 109.284 218.162 110.899 216.658 112.629ZM239.471 89.8364C239.604 89.5856 239.676 89.33 239.688 89.0696C239.694 88.9056 239.657 88.8959 239.578 89.0406C239.458 89.2528 239.392 89.5094 239.378 89.8103C239.373 89.9531 239.404 89.9618 239.471 89.8364ZM246.019 90.5135L245.918 90.5829C245.847 90.6315 245.796 90.7044 245.773 90.7884C245.093 93.2046 244.946 95.7799 244.723 98.2511C244.648 99.1047 244.729 102.123 245.823 102.369C246.827 102.594 248.571 102.809 249.483 102.212C249.574 102.155 249.624 102.073 249.633 101.966C249.897 99.4461 249.359 96.8679 248.71 94.3418C248.334 92.8795 247.739 91.4549 246.925 90.0679C246.867 89.9695 246.789 89.9049 246.691 89.874C246.575 89.8393 246.455 89.8412 246.332 89.8798C246.214 89.9184 246.156 89.9994 246.158 90.1228L246.161 90.2328C246.165 90.3524 246.118 90.446 246.019 90.5135ZM250.707 118.399L250.779 118.336C250.82 118.299 250.846 118.248 250.852 118.194C250.941 117.329 250.802 116.521 250.831 115.659C250.87 114.525 250.924 113.431 250.993 112.378C251.036 111.745 251.04 111.052 251.005 110.297C250.972 109.599 250.935 108.866 250.892 108.098C250.842 107.151 250.416 106.559 249.613 106.321C248.838 106.092 248.078 105.831 247.333 105.54C246.588 105.245 245.991 105.168 245.542 105.309C244.254 105.708 243.707 106.356 243.589 107.771C243.313 111.024 243.001 114.227 242.654 117.381C242.498 118.789 242.172 121.008 241.676 124.039C241.46 125.359 241.298 126.639 241.19 127.882C241.084 129.097 240.926 130.409 240.715 131.817C240.451 133.594 240.276 135.388 240.192 137.199C240.061 139.971 239.555 142.686 239.106 145.446C238.727 147.761 238.684 150.102 238.519 152.443C238.363 154.616 237.665 156.746 237.084 158.829C235.814 163.372 235.25 168.007 235.391 172.733C235.446 174.559 235.394 176.958 234.957 178.448C234.697 179.341 234.453 180.261 234.228 181.208C234.1 181.743 234.212 181.799 234.563 181.376C234.901 180.967 235.146 180.472 235.298 179.889C235.684 178.396 236.066 177.129 236.444 176.09C238.568 170.241 240.353 165.093 241.798 160.646C242.201 159.404 242.481 157.958 242.64 156.309C242.692 155.779 242.46 155.371 242.735 154.85C243.702 153.004 244.821 151.031 245.354 149.028C246.057 146.384 246.497 143.756 246.691 141.004C246.751 140.148 246.968 139.326 247.11 138.475C247.553 135.807 248.519 133.278 248.93 130.593C249.366 127.761 249.814 125.013 250.273 122.349C250.512 120.964 250.646 119.672 250.675 118.472C250.675 118.443 250.686 118.419 250.707 118.399ZM239.575 105.76C239.544 105.741 239.522 105.716 239.509 105.685C239.5 105.665 239.488 105.648 239.473 105.634C239.457 105.619 239.439 105.608 239.419 105.601C239.4 105.594 239.379 105.591 239.358 105.593C239.337 105.594 239.316 105.6 239.297 105.61C238.826 105.856 238.331 105.844 237.853 106.133C237.207 106.527 236.544 106.92 235.863 107.314C234.468 108.121 232.891 108.712 231.389 109.383C228.944 110.477 227.387 112.491 225.405 114.146C224.61 114.807 223.679 115.503 222.61 116.232C218.021 119.363 213.805 123.4 209.725 127.344C209.285 127.77 208.968 128.28 208.775 128.874C208.469 129.821 209.111 131.088 209.574 131.918C210.732 133.988 211.844 136.214 212.91 138.597C213.246 139.349 213.619 140.086 214.03 140.808C215.346 143.121 216.474 145.166 217.416 146.945C218.663 149.303 219.519 151.989 220.463 154.46C221.07 156.054 221.302 157.695 221.985 159.269C223.096 161.833 224.139 164.574 225.113 167.493C225.22 167.82 225.156 168.103 225.26 168.442C225.812 170.242 226.517 172.158 227.376 174.191C227.812 175.224 228.365 176.15 229.037 176.972C229.087 177.034 229.152 177.084 229.225 177.115C229.299 177.147 229.379 177.161 229.459 177.155C229.539 177.149 229.617 177.123 229.685 177.081C229.754 177.039 229.811 176.981 229.853 176.911C230.651 175.58 231.169 174.071 231.406 172.383C231.727 170.105 231.871 168.084 231.841 166.321C231.825 165.451 231.869 164.7 231.974 164.07C232.097 163.311 232.229 162.575 232.37 161.862C232.712 160.127 232.964 158.12 233.128 155.84C233.2 154.835 233.373 153.852 233.649 152.891C234.019 151.591 234.283 150.441 234.439 149.439C234.871 146.683 235.348 143.882 235.868 141.036C236.235 139.038 236.528 137.126 236.748 135.301C237.055 132.762 237.402 130.328 237.79 127.998C238.354 124.609 238.655 121.14 239.104 117.682C239.285 116.283 239.571 114.722 239.963 112.997C240.308 111.473 240.575 109.876 240.764 108.205C240.872 107.247 240.944 106.596 240.2 105.879C240.067 105.751 239.916 105.719 239.746 105.78C239.686 105.803 239.629 105.797 239.575 105.76ZM262.938 130.738C262.944 129.997 263.092 129.279 263.054 128.553C262.971 126.952 262.792 125.307 262.516 123.619C262.334 122.517 261.94 121.496 261.625 120.445C261.387 119.654 261.168 118.861 260.968 118.067C260.42 115.91 259.811 113.969 259.142 112.245C258.716 111.147 258.168 110.254 257.498 109.565C256.972 109.027 255.58 108.289 254.865 108.96C254.003 109.765 253.789 111.131 253.942 112.239C254.069 113.173 254.082 114.077 253.98 114.953C253.92 115.464 253.882 115.978 253.867 116.495C253.844 117.141 253.887 117.902 253.748 118.55C253.712 118.72 253.709 118.884 253.739 119.042C253.786 119.283 253.807 119.549 253.803 119.84C253.745 123.363 253.413 126.842 252.805 130.278C252.195 133.721 251.518 137.156 250.774 140.582C250.432 142.139 250.186 143.808 249.877 145.388C249.655 146.517 249.461 147.722 249.295 149.002C248.977 151.466 248.523 153.66 247.935 155.585C247.217 157.929 246.471 160.323 245.695 162.767C244.668 166.008 243.189 169.281 242.33 172.571C242.091 173.487 242.029 174.489 242.145 175.575C242.183 175.945 242.196 176.306 242.182 176.657C242.167 177.027 242.177 177.408 242.211 177.8C242.214 177.835 242.227 177.868 242.248 177.896C242.269 177.924 242.298 177.945 242.331 177.957C242.364 177.969 242.4 177.971 242.434 177.963C242.468 177.955 242.499 177.938 242.524 177.913C242.799 177.638 243.16 177.542 243.409 177.247C244.104 176.428 244.914 175.624 245.568 174.828C246.86 173.25 248.141 171.701 249.411 170.181C249.654 169.889 249.714 169.579 249.992 169.31C250.478 168.835 250.742 168.202 251.173 167.692C251.795 166.963 252.139 165.901 252.452 164.99C252.961 163.508 253.664 162.079 254.324 160.646C254.498 160.272 254.748 159.55 255.076 158.479C255.617 156.717 256.332 154.839 257.218 153.239C257.794 152.199 258.339 151.173 258.853 150.16C259.065 149.741 259.218 149.352 259.313 148.991C260.137 145.831 261.098 142.631 261.737 139.439C262.166 137.309 262.687 135.284 262.837 133.203C262.897 132.341 262.931 131.519 262.938 130.738ZM194.9 132.072C193.844 133.342 192.655 134.534 192.507 136.279C192.374 137.845 194.701 137.147 195.363 136.716C196.112 136.228 196.876 135.494 197.655 134.514C198.444 133.522 198.634 132.498 198.225 131.441C198.191 131.352 198.132 131.285 198.049 131.238C196.995 130.66 195.586 131.244 194.9 132.072ZM215.211 184.623C215.473 184.594 215.619 184.455 215.648 184.206C215.818 182.775 215.764 181.333 215.489 179.88C215.427 179.556 215.403 179.217 215.416 178.862C215.428 178.501 215.427 178.155 215.413 177.823C215.394 177.337 215.273 176.855 215.049 176.376C214.41 175.016 213.92 173.425 213.579 171.602C213.512 171.246 213.275 170.959 213.373 170.603C213.404 170.486 213.401 170.37 213.365 170.256C213.01 169.135 212.657 168.144 212.306 167.281C211.272 164.733 210.469 162.207 209.898 159.703C209.804 159.284 209.66 158.882 209.467 158.496C208.861 157.283 208.215 156.095 207.528 154.931C206.845 153.78 206.501 152.243 206.003 150.921C204.768 147.628 203.604 144.526 202.702 141.022C202.538 140.385 202.258 139.747 201.863 139.106C201.498 138.514 201.043 138.231 200.497 138.258C198.517 138.354 197.557 139.864 196.579 141.381C195.977 142.312 196.229 143.452 196.726 144.378C197.756 146.288 198.713 148.354 199.597 150.577C200.002 151.593 200.445 152.588 200.925 153.56C202.152 156.04 202.589 158.158 203.168 160.701C203.376 161.613 203.671 162.487 204.007 163.326C205.245 166.414 206.628 169.514 208.156 172.626C209.256 174.86 210.017 177.291 210.815 179.62C211.328 181.113 212.074 182.444 213 183.729C213.437 184.334 214.241 185.283 215.023 184.695C215.079 184.655 215.141 184.631 215.211 184.623ZM189.834 143.461C190.154 142.605 190.093 141.592 189.651 140.423C189.53 140.102 189.466 139.786 189.044 139.743C188.419 139.681 187.724 139.755 186.96 139.966C186.02 140.226 185.997 142.081 186.055 142.891C186.234 145.293 188.98 145.744 189.834 143.461ZM72.5983 215.096C72.5983 215.19 72.5646 215.259 72.497 215.301C72.416 215.353 72.3881 215.425 72.4131 215.515C72.8453 217.062 73.124 218.311 73.2494 219.26C73.6699 222.421 74.2612 225.499 75.0232 228.493C75.274 229.483 75.5084 230.498 75.7263 231.537C76.2048 233.821 77.0902 235.976 78.3827 238.002C78.7965 238.647 79.3347 239.107 79.6848 239.77C79.789 239.965 79.8498 239.952 79.8671 239.732C79.871 239.688 79.8855 239.647 79.9105 239.611C79.9645 239.532 80.0359 239.472 80.1247 239.431C80.7767 239.136 81.4268 238.779 82.075 238.361C82.8485 237.863 83.8979 237.426 85.2232 237.05C86.5717 236.668 88.0648 236.705 89.4537 236.705C90.1945 236.705 90.8803 236.512 91.6037 236.402C91.704 236.386 91.785 236.338 91.8468 236.257L92.1043 235.913C92.1666 235.829 92.2519 235.765 92.3502 235.727C93.2473 235.376 94.1279 235.013 94.9921 234.636C97.9321 233.352 100.452 230.892 102.487 228.305C103.146 227.464 103.83 226.7 104.538 226.013C105.665 224.922 106.868 223.588 108.147 222.012C109.469 220.38 109.347 217.639 108.682 215.706C108.643 215.594 108.682 215.529 108.798 215.51C108.881 215.496 108.894 215.458 108.838 215.397C108.705 215.252 108.628 215.062 108.607 214.827C108.489 213.434 108.568 212.236 108.844 211.233C109.261 209.719 108.638 207.841 108.008 206.403C106.761 203.556 105.681 200.445 104.275 197.552C103.798 196.57 103.372 195.62 102.996 194.701C101.773 191.706 100.612 188.636 99.512 185.494C99.0143 184.07 98.4066 182.768 97.8337 181.417C96.7804 178.92 95.976 176.367 94.8706 173.908C92.9145 169.565 91.1349 165.198 89.2107 160.545C88.8403 159.648 88.4901 158.699 88.1603 157.698C87.3906 155.354 86.0884 153.126 85.3448 151.158C84.7738 149.644 84.197 148.175 83.6144 146.751C83.4543 146.36 83.2449 145.95 82.9865 145.521C82.9363 145.438 82.863 145.396 82.7665 145.394C82.1319 145.375 81.6264 145.618 81.2503 146.123C80.6889 146.881 80.3156 147.749 80.3214 148.722C80.3272 149.576 80.1864 150.414 79.899 151.236C78.5833 155.004 77.4297 158.549 76.4382 161.873C76.3552 162.151 76.2675 162.73 76.1749 163.609C75.9868 165.403 75.3068 167.255 74.7338 168.954C74.2708 170.323 74.2998 172.287 74.0046 173.885C73.5503 176.353 73.2986 179.018 72.8385 181.59C72.1826 185.275 71.8479 188.132 71.8344 190.161C71.819 192.739 71.8122 195.142 71.8142 197.372C71.8142 197.878 71.7698 198.852 71.6811 200.295C71.6193 201.273 71.6193 202.252 71.6811 203.232C71.7881 204.951 71.8055 206.198 71.8547 207.679C71.8691 208.105 72.0254 208.594 72.1267 209.016C72.1382 209.072 72.1238 209.119 72.0833 209.155C72.0505 209.186 72.0225 209.189 71.9994 209.164C71.8855 209.04 71.8325 209.063 71.8402 209.23C71.8894 210.13 72.0572 211.013 72.0891 211.872C72.1296 212.912 72.2414 213.945 72.4247 214.971C72.4286 214.993 72.4382 215.011 72.4536 215.026C72.471 215.046 72.4961 215.05 72.5289 215.041C72.5752 215.029 72.5983 215.048 72.5983 215.096ZM180.016 147.191C178.752 147.864 177.754 148.854 177.021 150.16C176.685 150.759 176.807 151.346 177.203 151.876C177.996 152.935 179.179 154.176 180.406 154.723C180.725 154.864 181.062 154.856 181.419 154.7C183.557 153.768 183.618 151.025 183.034 149.118C182.669 147.926 181.402 146.453 180.016 147.191ZM205.219 177.583C204.079 174.793 202.875 172.172 201.475 169.533C200.802 168.265 200.265 167.082 199.866 165.982C199.238 164.255 198.735 162.455 197.994 160.811C197.016 158.641 195.774 156.717 194.756 154.674C194.383 153.924 194.086 152.875 193.865 151.529C193.602 149.935 192.8 149.082 191.457 148.968C191.359 148.958 191.267 148.978 191.182 149.028C189.125 150.25 190.508 152.455 191.376 153.803C192.198 155.082 192.814 156.357 193.225 157.628C193.678 159.035 193.909 159.746 193.917 159.764C195.08 162.88 196.362 166.063 197.343 169.128C198.12 171.56 198.928 174.01 199.768 176.477C200.708 179.235 201.356 182.059 202.048 184.826C202.881 188.165 204.309 191.218 206.33 193.984C206.811 194.641 207.502 195.237 208.153 195.758C208.261 195.843 208.355 195.829 208.434 195.717C209.23 194.577 209.29 192.69 209.189 191.342C208.971 188.398 208.352 185.409 207.331 182.375C206.764 180.688 205.778 178.954 205.219 177.583ZM175.652 159.324C175.118 158.194 174.572 157.006 174.014 155.762C173.669 154.994 173.156 154.791 172.475 155.151C171.086 155.886 169.691 156.792 169.002 158.36C168.592 159.292 169.199 160.264 169.607 161.089C170.257 162.401 170.93 163.749 171.624 165.134C172.397 166.68 173.991 167.973 175.664 166.642C176.134 166.266 176.416 165.704 176.509 164.958C176.755 162.93 176.47 161.052 175.652 159.324ZM196.477 185.289C195.132 181.588 193.005 178.303 191.547 174.643C190.542 172.123 189.486 169.668 188.381 167.276C187.377 165.103 186.529 162.695 185.817 160.337C185.607 159.636 185.121 159.36 184.359 159.506C183.719 159.628 183.285 159.892 183.06 160.299C182.174 161.885 182.663 163.867 183.32 165.563C184.162 167.739 184.831 169.863 185.91 171.969C187.056 174.209 188.494 176.292 189.379 178.653C190.315 181.15 191.365 183.796 192.531 186.594C193.61 189.186 194.947 191.675 195.922 194.348C196.52 195.986 197.188 197.638 197.927 199.302C198.556 200.718 199.408 201.897 200.482 202.838C200.948 203.243 201.787 203.489 202.074 202.714C203.05 200.071 202.831 197.404 201.417 194.713C200.268 192.531 198.865 190.552 197.797 188.417C197.353 187.529 196.913 186.486 196.477 185.289ZM175.068 190.378C174.325 188.802 173.338 187.288 172.107 185.835C171.749 185.411 171.493 184.987 171.341 184.562C170.841 183.177 170.506 181.785 170.336 180.387C170.08 178.257 169.758 176.137 169.37 174.027C169.246 173.361 168.985 172.609 168.675 172.01C167.84 170.389 167.294 169.011 167.038 167.875C166.826 166.94 165.906 162.565 164.283 163.285C163.014 163.847 161.924 164.79 161.013 166.115C160.119 167.415 161.285 169.915 162.014 171.188C163.278 173.401 164.417 175.603 165.432 177.794C166.436 179.958 167.744 182.039 169.072 184.027C170.38 185.983 170.88 188.11 171.581 190.231C172.47 192.92 173.705 196.17 175.285 199.979C176.566 203.073 177.313 206.311 178.58 209.45C179.393 211.458 180.228 213.614 181.086 215.918C182.035 218.46 183.224 221.001 184.651 223.539C185.705 225.411 187.023 226.831 188.607 227.802C188.86 227.956 189.109 228.071 189.356 228.146C189.46 228.177 189.55 228.153 189.625 228.074C190.641 227.003 190.774 224.804 190.67 223.319C190.419 219.739 189.329 216.308 187.4 213.027C185.21 209.303 182.796 205.419 180.797 201.525C179.329 198.666 177.765 195.647 176.106 192.468C175.746 191.775 175.399 191.079 175.068 190.378ZM190.774 195.83C189.18 191.955 186.969 188.486 184.671 184.947C183.8 183.607 183.338 182.004 182.903 180.442C182.685 179.651 182.401 178.814 182.05 177.933C181.342 176.147 180.628 174.253 179.909 172.253C179.582 171.341 178.829 170.583 177.816 171.058C176.676 171.593 176.679 173.488 176.911 174.513C177.498 177.1 178.861 179.44 180.34 181.712C181.381 183.313 182.148 184.784 182.64 186.125C183.528 188.55 184.191 191.22 185.181 193.611C186.298 196.305 186.986 198.909 187.588 201.692C187.891 203.089 188.315 204.52 188.859 205.984C190.072 209.252 191.699 212.574 193.74 215.952C194.481 217.182 196.454 219.028 198.028 218.606C198.125 218.579 198.181 218.516 198.196 218.418C198.403 217.127 198.474 215.524 198.41 213.608C198.314 210.723 197.725 208.192 196.642 206.016C195.818 204.363 194.793 202.862 193.888 201.258C193.104 199.875 192.338 198.594 191.587 197.416C191.282 196.939 191.011 196.411 190.774 195.83ZM160.403 182.551C160.462 182.379 160.472 182.214 160.432 182.053C160.046 180.52 159.553 178.877 158.953 177.126C158.802 176.682 158.622 176.258 158.412 175.855C157.975 175.01 157.631 174.139 157.078 173.332C156.178 172.015 153.545 174.241 152.74 174.99C151.571 176.078 151.331 177.166 151.603 178.711C151.769 179.647 151.984 180.505 152.248 181.287C153.612 185.303 155.304 189.093 157.324 192.656C158.4 194.554 159.213 196.331 160.021 198.31C160.567 199.652 161.212 201.029 161.956 202.439C163.17 204.739 164.305 206.957 165.362 209.094C166.2 210.79 166.908 212.491 167.489 214.196C168.444 217.001 169.309 219.637 170.085 222.104C170.519 223.482 170.902 225.029 171.233 226.746C171.536 228.324 172.004 229.925 172.637 231.549C173.268 233.169 174.217 234.784 175.07 236.344C176.772 239.443 179.367 242.122 182.62 243.491C182.888 243.605 183.151 243.641 183.41 243.601C185.496 243.277 183.479 234.037 183.204 232.547C182.934 231.079 182.525 229.683 181.978 228.357C180.781 225.469 179.26 222.259 177.414 218.727C176.187 216.381 174.309 214.086 173.36 211.884C172.384 209.621 171.612 208.007 171.042 207.043C168.843 203.324 166.884 199.626 165.446 195.581C164.846 193.889 164.069 192.067 163.114 190.115C163.068 190.019 163.046 189.916 163.05 189.808C163.056 189.702 163.026 189.606 162.961 189.519C162.878 189.405 162.811 189.281 162.761 189.146C162.076 187.265 161.422 185.372 160.799 183.468C160.755 183.333 160.735 183.197 160.741 183.06C160.747 182.895 160.673 182.794 160.518 182.759C160.401 182.734 160.362 182.665 160.403 182.551ZM217.537 176.674C217.595 176.771 217.678 176.848 217.786 176.906C217.915 176.975 217.955 176.941 217.905 176.804C217.841 176.631 217.714 176.529 217.523 176.498C217.423 176.48 217.398 176.515 217.451 176.602C217.472 176.637 217.501 176.661 217.537 176.674ZM218.021 178.133L218.012 178.014C218.002 177.836 217.968 177.832 217.908 177.999C217.854 178.146 217.851 178.297 217.899 178.451C217.914 178.505 217.952 178.533 218.012 178.535C218.101 178.535 218.13 178.493 218.099 178.41L218.055 178.292C218.036 178.242 218.024 178.189 218.021 178.133ZM218.932 178.546H219.117C219.256 178.546 219.287 178.488 219.21 178.373L219.155 178.286C219.105 178.209 219.045 178.201 218.975 178.263C218.846 178.377 218.682 178.449 218.484 178.48C218.354 178.499 218.351 178.531 218.475 178.575C218.562 178.608 218.651 178.609 218.744 178.578C218.804 178.557 218.866 178.546 218.932 178.546ZM220.686 192.786C220.66 192.78 220.634 192.784 220.605 192.797C220.585 192.805 220.577 192.82 220.579 192.841C220.625 193.946 220.319 194.934 219.661 195.804C219.598 195.887 219.515 195.933 219.412 195.943C218.854 195.992 218.298 196.012 217.827 195.63C217.404 195.287 216.969 194.925 216.522 194.545C216.506 194.532 216.487 194.524 216.467 194.52C216.447 194.517 216.427 194.519 216.408 194.526C216.388 194.533 216.372 194.545 216.359 194.56C216.346 194.576 216.337 194.595 216.334 194.615C216.308 194.786 216.211 194.877 216.041 194.887C215.904 194.894 215.889 194.855 215.995 194.768C216.134 194.656 216.168 194.516 216.096 194.348C216.058 194.26 215.994 194.233 215.905 194.267C215.548 194.406 215.167 194.354 214.762 194.111C214.676 194.059 214.577 194.031 214.467 194.027C214.378 194.025 214.291 194.024 214.204 194.024C214.075 194.021 214.031 194.079 214.074 194.201C214.191 194.535 214.229 194.876 214.186 195.225C213.951 197.075 213.815 198.738 213.778 200.214C213.767 200.599 213.596 200.934 213.645 201.325C213.748 202.139 213.526 202.86 212.98 203.487C212.349 204.216 211.223 204.415 210.413 203.996C209.881 203.718 209.259 203.542 208.547 203.466C208.425 203.453 208.313 203.48 208.211 203.547L207.363 204.1C207.267 204.164 207.211 204.252 207.195 204.366C207.141 204.754 207.078 205.147 207.005 205.547C206.845 206.415 207.074 207.277 206.978 208.166C206.837 209.505 205.838 211.019 204.441 211.415C203.941 211.556 203.477 211.757 203.049 212.02C202.908 212.105 202.756 212.14 202.592 212.127C202.497 212.117 202.414 212.138 202.343 212.188C202.26 212.244 202.22 212.322 202.224 212.422C202.309 214.932 202.532 217.461 202.893 220.009C203.045 221.082 203.082 222.083 203.003 223.013C202.78 225.669 198.778 224.416 197.343 223.881C196.758 223.664 195.034 223.563 194.747 224.341C194.604 224.731 194.575 225.162 194.66 225.634C195.017 227.658 195.34 229.647 195.63 231.601C195.777 232.591 195.693 234.179 194.683 234.593C192.395 235.533 190.945 234.052 188.951 233.401C188.124 233.131 187.463 233.352 186.969 234.064C186.902 234.162 186.883 234.268 186.914 234.382C186.983 234.646 186.983 234.915 186.914 235.189C186.887 235.295 186.892 235.4 186.929 235.505C187.627 237.507 188.104 239.587 188.361 241.743C188.486 242.8 188.627 243.859 188.783 244.92C188.855 245.405 188.861 245.883 188.804 246.356C188.801 246.384 188.804 246.414 188.813 246.441C188.822 246.468 188.838 246.493 188.857 246.514C188.877 246.535 188.902 246.551 188.928 246.561C188.955 246.571 188.983 246.575 189.012 246.573C191.02 246.434 193.844 243.456 195.3 241.807C198.915 237.704 202.23 233.636 205.245 229.604C206.846 227.463 208.019 225.93 208.764 225.006C211.544 221.557 214.375 218.201 217.257 214.937C217.874 214.236 218.466 213.498 219.033 212.72C220.777 210.324 222.479 207.894 224.138 205.428C225.865 202.864 228.076 200.677 229.699 198.119C230.513 196.84 231.237 195.551 231.869 194.253C231.899 194.193 231.914 194.126 231.912 194.059C231.911 193.992 231.894 193.926 231.862 193.866C231.83 193.807 231.784 193.757 231.728 193.719C231.673 193.681 231.609 193.657 231.542 193.648C230.544 193.527 229.164 193.593 228.417 192.809C227.657 192.008 227.368 191 227.549 189.782C227.852 187.766 228.099 185.738 228.29 183.697C228.327 183.302 228.315 182.914 228.255 182.534C228.217 182.283 228.083 182.046 227.853 181.822C227.681 181.654 227.469 181.58 227.217 181.599C226.373 181.661 225.574 181.694 224.818 181.698C223.429 181.7 222.341 180.89 221.25 180.097C220.79 179.762 220.677 179.252 220.02 179.099C219.973 179.088 219.925 179.088 219.878 179.098C219.831 179.109 219.788 179.13 219.751 179.16C219.713 179.191 219.684 179.229 219.664 179.273C219.644 179.316 219.634 179.364 219.635 179.412C219.639 179.572 219.722 179.67 219.884 179.707C219.924 179.717 219.966 179.716 220.006 179.706C220.046 179.696 220.082 179.676 220.113 179.649L220.22 179.55C220.305 179.471 220.328 179.486 220.289 179.594C220.224 179.769 220.085 179.861 219.872 179.869C219.819 179.871 219.765 179.859 219.716 179.836C219.668 179.813 219.625 179.779 219.592 179.736C219.405 179.5 219.348 179.234 219.421 178.937C219.433 178.889 219.414 178.862 219.366 178.856L219.294 178.847C219.288 178.847 219.285 178.85 219.285 178.856C219.295 179.217 219.338 179.562 219.415 179.892C219.609 180.708 219.511 181.521 219.722 182.343C219.836 182.785 219.914 183.238 219.956 183.703C220.142 185.78 220.471 187.812 220.535 189.866C220.564 190.81 220.621 191.777 220.706 192.769C220.708 192.784 220.701 192.79 220.686 192.786ZM147.899 205.237C148.1 205.584 148.294 205.919 148.481 206.241C148.687 206.594 148.865 206.961 149.013 207.341C149.866 209.513 150.647 211.626 151.357 213.681C151.973 215.463 152.655 217.253 153.406 219.051C154.378 221.386 155.184 223.625 155.825 225.77C156.259 227.225 156.736 228.472 157.257 229.512C158.789 232.562 160.552 235.862 162.547 239.414C163.504 241.117 164.828 242.611 166.52 243.896C167.362 244.538 168.447 245.476 169.486 245.705C170.676 245.967 171.38 245.458 171.598 244.177C172.048 241.528 171.287 238.896 169.318 236.28C167.91 234.411 166.834 232.806 166.091 231.465C165.497 230.394 164.826 229.035 164.078 227.388C163.516 226.149 162.773 224.814 161.849 223.38C160.637 221.494 159.63 219.358 158.614 217.298C158.057 216.167 157.601 214.978 157.246 213.73C157.17 213.464 156.939 213.224 156.948 212.949C156.951 212.756 156.922 212.563 156.858 212.37C155.932 209.567 154.73 206.861 153.252 204.253C152.601 203.105 151.965 201.762 151.493 200.477C150.633 198.139 149.771 195.782 148.909 193.405C148.51 192.3 148.259 191.286 148.157 190.364C147.974 188.707 147.69 187.087 147.306 185.506C147.177 184.977 146.949 184.54 146.623 184.195C146.558 184.125 146.478 184.092 146.383 184.096C144.505 184.172 140.85 187.493 141.438 189.493C141.694 190.375 141.98 191.101 142.294 191.672C143.674 194.187 144.529 196.012 144.861 197.147C145.644 199.816 146.516 202.335 147.477 204.702C147.555 204.896 147.789 205.049 147.899 205.237ZM158.84 245.87C158.539 245.227 158.108 244.918 157.989 244.119C157.943 243.795 157.871 243.468 157.772 243.138C156.611 239.237 155.46 236.042 154.32 233.551C153.267 231.25 152.27 229.03 151.328 226.89C150.512 225.03 149.505 223.172 148.817 221.279C148.626 220.759 148.296 220.29 148.116 219.772C147.553 218.124 146.962 216.318 146.342 214.352C146.013 213.303 145.634 212.301 145.208 211.346C144.365 209.463 143.611 207.558 142.945 205.631C142.513 204.385 142.044 203.225 141.536 202.153C140.332 199.606 139.647 196.959 138.295 194.623C137.887 193.917 137.199 193.631 136.429 194.053C134.577 195.066 131.608 197.43 131.599 199.713C131.594 201.241 131.983 202.787 132.768 204.352C134.979 208.753 137.216 213.07 139.12 217.581C141.178 222.462 143.344 227.26 145.616 231.974C146.316 233.431 146.839 234.743 147.185 235.91C148.01 238.716 148.793 241.057 149.534 242.932C150.035 244.197 150.833 245.418 151.354 246.752C152.695 250.176 154.413 253.645 156.508 257.158C156.971 257.935 157.475 258.707 158.021 259.472C158.823 260.595 159.613 261.533 161.123 261.391C161.199 261.383 161.27 261.353 161.328 261.303C161.386 261.253 161.428 261.187 161.447 261.113C161.829 259.658 161.609 257.765 161.233 256.159C160.923 254.832 160.572 253.448 160.183 252.007C160.061 251.561 160.139 251.075 159.925 250.682C159.535 249.958 159.671 249.203 159.381 248.491C159.321 248.345 159.292 248.185 159.294 248.014C159.3 247.248 159.149 246.533 158.84 245.87ZM138.081 230.837C136.964 228.611 136.046 226.474 135.326 224.425C133.683 219.747 131.945 214.798 130.112 209.578C129.734 208.495 129.336 207.486 128.917 206.548C128.552 205.732 127.679 204.91 126.718 205.09C125.448 205.324 124.362 206.51 123.7 207.668C122.855 209.149 123.098 210.752 123.813 212.234C124.418 213.488 125.052 214.639 125.714 215.686C127.215 218.059 128.444 220.233 129.403 222.208C130.059 223.561 130.681 224.735 131.27 225.733C132.887 228.473 133.92 231.106 135.179 233.777C135.916 235.34 136.857 236.999 138.003 238.754C139.039 240.337 139.974 241.998 140.821 243.743C141.872 245.898 143.249 247.941 144.806 249.631C145.128 249.982 145.569 250.318 146.128 250.638C146.406 250.797 146.745 250.74 146.921 250.473C146.973 250.394 146.987 250.31 146.962 250.222C146.867 249.876 146.754 249.531 146.623 249.186C145.728 246.824 144.682 244.472 143.486 242.128C142.568 240.332 141.75 238.634 141.033 237.035C140.13 235.029 139.146 232.963 138.081 230.837ZM146.655 267.604C146.584 267.719 146.583 267.85 146.652 267.994C146.704 268.104 146.783 268.131 146.889 268.075C147.007 268.015 147.089 268.048 147.135 268.174C147.161 268.24 147.206 268.296 147.265 268.336C147.323 268.375 147.392 268.395 147.462 268.394C147.669 268.386 147.846 268.467 147.995 268.637C148.622 269.341 149.189 270.049 149.696 270.761C150.582 272.011 151.563 272.56 153.088 272.144C153.878 271.928 154.602 271.624 155.258 271.232C156.693 270.378 158.143 269.573 159.607 268.819C160.396 268.41 160.614 267.791 160.261 266.961C159.271 264.626 155.819 263.975 153.632 263.509C152.443 263.254 151.283 262.6 150.15 261.547C148.987 260.465 147.822 259.358 146.655 258.225C145.315 256.926 143.504 256.284 141.895 255.456C141.324 255.161 140.863 254.783 140.512 254.322C139.306 252.736 138.142 250.905 137.019 248.83C135.837 246.646 134.662 244.589 133.495 242.658C132.762 241.44 132.183 240.289 131.759 239.203C131.261 237.922 130.767 236.759 130.277 235.716C129.197 233.412 127.997 231.13 126.677 228.869C125.994 227.699 125.373 226.446 124.814 225.111C124.202 223.648 123.558 222.111 122.881 220.498C122.068 218.562 120.867 216.447 119.064 215.238C118.512 214.865 117.988 214.881 117.49 215.284C116.961 215.709 116.865 216.441 116.961 217.072C117.258 219.024 117.795 220.908 118.572 222.723C119.235 224.274 120.233 225.822 120.876 227.457C122.178 230.775 123.442 233.597 124.669 235.921C126.162 238.749 127.471 241.463 128.596 244.061C129.36 245.824 130.123 247.374 130.885 248.711C132.611 251.746 134.896 255.177 137.74 259.007C138.984 260.679 140.147 261.953 141.229 262.829C142.074 263.512 142.951 264.19 143.86 264.863C144.168 265.091 144.435 265.355 144.658 265.656C144.828 265.884 145.004 266.093 145.185 266.284C145.245 266.346 145.316 266.384 145.399 266.4C145.887 266.494 146.091 266.766 146.01 267.216C146.003 267.26 146.007 267.305 146.023 267.346C146.039 267.388 146.065 267.425 146.099 267.453C146.244 267.571 146.406 267.594 146.586 267.523C146.692 267.478 146.715 267.505 146.655 267.604ZM110.49 223.652C110.1 223.892 109.698 223.924 109.345 224.237C107.06 226.255 105.055 228.519 103.329 231.031C102.825 231.76 101.627 233.164 102.501 233.988C102.86 234.326 103.292 234.568 103.797 234.715C105.159 235.108 106.574 235.478 108.042 235.823C111.529 236.645 114.735 237.976 117.887 239.784C118.091 239.9 118.301 239.974 118.517 240.007C118.62 240.021 118.712 240.059 118.795 240.123C119.544 240.684 120.358 240.782 121.237 240.415C121.3 240.389 121.352 240.342 121.384 240.282C121.417 240.222 121.428 240.153 121.417 240.085C121.27 239.213 121.006 238.413 120.624 237.683C119.695 235.918 118.532 234.275 117.588 232.498C116.157 229.805 114.623 227.273 112.988 224.902C112.444 224.115 111.593 222.972 110.49 223.652ZM80.7699 241.798C80.8915 241.544 81.0564 241.305 81.2647 241.083C81.3766 240.962 81.3516 240.885 81.1895 240.852C80.7478 240.759 80.5298 240.939 80.5356 241.39C80.5413 241.899 80.5375 242.395 80.524 242.878C80.4622 245.297 81.3381 247.307 83.1514 248.908C83.5353 249.247 83.9684 249.471 84.4506 249.579C84.495 249.589 84.5326 249.611 84.5635 249.646C84.5751 249.661 84.5828 249.679 84.5866 249.698C84.604 249.788 84.6599 249.844 84.7545 249.866C84.8123 249.879 84.8615 249.863 84.902 249.816C84.931 249.784 84.9464 249.743 84.9483 249.695C84.9522 249.622 84.9397 249.552 84.9107 249.487C84.8683 249.388 84.877 249.293 84.9368 249.2L85.5936 248.164C85.6785 248.031 85.7971 247.944 85.9495 247.904C86.1232 247.857 86.2215 247.747 86.2447 247.571C86.264 247.419 86.3218 247.283 86.4183 247.163C87.4909 245.824 88.7014 244.73 90.0498 243.882C90.1385 243.828 90.2061 243.753 90.2524 243.659C90.3739 243.414 90.5533 243.23 90.7906 243.106C90.9025 243.046 90.9902 242.961 91.0539 242.851C91.4918 242.093 91.8815 241.344 92.2229 240.603C92.6656 239.645 92.113 238.306 91.6558 237.383C91.5883 237.242 91.4783 237.191 91.3259 237.229C90.7259 237.382 90.1038 237.566 89.4595 237.782C89.4364 237.79 89.4315 237.803 89.445 237.822C89.4508 237.83 89.4547 237.839 89.4566 237.848C89.4605 237.889 89.4441 237.921 89.4074 237.944C88.6744 238.395 87.9587 238.85 87.2603 239.307C85.6148 240.389 83.815 241.063 81.8608 241.329C81.7605 241.343 81.6699 241.381 81.5888 241.442C81.3554 241.614 81.1181 241.765 80.877 241.897C80.7381 241.974 80.7024 241.941 80.7699 241.798ZM117.539 242.95C116.744 242.467 115.962 242.038 115.088 241.677C112.417 240.566 109.706 239.674 106.957 239.003C106.261 238.833 105.57 238.645 104.885 238.439C103.216 237.932 102.003 237.646 100.342 237.594C98.4818 237.533 96.9366 238.346 95.6692 239.619C93.9601 241.338 92.3194 243.146 90.7472 245.042C90.6604 245.148 90.5851 245.348 90.5215 245.641C90.5002 245.741 90.4453 245.816 90.3565 245.864C90.2369 245.929 90.1231 245.924 90.0151 245.846C89.9418 245.794 89.908 245.723 89.9138 245.632C89.9177 245.572 89.9022 245.517 89.8675 245.464C89.8116 245.378 89.7556 245.378 89.6997 245.464C89.6707 245.509 89.6514 245.556 89.6418 245.606C89.6264 245.683 89.6389 245.756 89.6794 245.823C89.8145 246.059 89.963 246.308 90.125 246.573C90.1365 246.591 90.1425 246.611 90.1424 246.633C90.1422 246.654 90.136 246.674 90.1244 246.692C90.1128 246.71 90.0963 246.724 90.0769 246.732C90.0575 246.741 90.036 246.744 90.0151 246.741L89.4248 246.659C89.3264 246.646 89.2367 246.668 89.1557 246.726C89.0245 246.821 88.9464 246.958 88.9213 247.137C88.9039 247.257 88.956 247.313 89.0775 247.308C89.1509 247.304 89.2174 247.325 89.2772 247.371C89.5222 247.558 89.4952 247.685 89.1962 247.75C89.1345 247.764 89.0747 247.759 89.0168 247.736C88.8972 247.688 88.8075 247.72 88.7477 247.834C88.4834 248.334 88.2123 248.827 87.9346 249.313C87.678 249.757 87.3298 250.195 86.89 250.627C86.3382 251.169 85.9351 251.808 85.6804 252.545C85.6534 252.624 85.6534 252.703 85.6804 252.782C86.0431 253.872 86.5987 254.89 87.3472 255.835C89.6476 258.743 92.2866 261.698 95.2728 263.96C96.5576 264.935 97.853 265.931 99.1589 266.95C99.6422 267.326 100.088 267.751 100.6 268.098C101.599 268.774 102.604 269.491 103.615 270.251C105.131 271.391 106.503 272.129 108.123 272.783C110.774 273.854 113.358 274.985 116.072 275.729C117.098 276.011 118.169 276.29 119.284 276.568C121.202 277.045 122.576 277.292 123.408 277.312C125.268 277.355 127.12 277.581 128.972 277.595C133.361 277.626 137.576 277.237 141.617 276.429C142.46 276.259 143.051 275.761 143.391 274.933C143.435 274.823 143.444 274.711 143.417 274.597C143.346 274.287 143.374 274.004 143.501 273.75C143.557 273.636 143.535 273.54 143.434 273.463C142.914 273.062 142.594 272.774 142.477 272.598C141.36 270.937 140.46 269.134 139.259 267.58C138.354 266.409 137.472 265.164 136.611 263.845C136.166 263.16 135.644 262.58 135.046 262.106C134.264 261.486 133.139 261.431 132.213 261.159C131.324 260.897 130.699 260.309 130.338 259.394C129.562 257.438 128.714 255.402 127.791 253.286C126.754 250.905 125.309 248.62 123.457 246.431C122.667 245.496 121.709 244.51 120.557 244.191C120.129 244.072 119.713 243.891 119.31 243.65C119.291 243.637 119.277 243.619 119.27 243.598C119.256 243.559 119.263 243.534 119.29 243.523C119.388 243.48 119.396 243.425 119.313 243.358C119.282 243.331 119.252 243.302 119.223 243.271C119.129 243.171 119.104 243.185 119.148 243.314C119.164 243.363 119.165 243.409 119.151 243.453C119.116 243.552 119.051 243.582 118.954 243.543C118.511 243.362 118.119 243.125 117.779 242.834C117.758 242.817 117.735 242.807 117.71 242.805C117.629 242.803 117.588 242.843 117.588 242.924C117.588 242.929 117.587 242.935 117.584 242.94C117.581 242.945 117.577 242.949 117.572 242.951C117.567 242.954 117.561 242.955 117.555 242.955C117.55 242.955 117.544 242.953 117.539 242.95ZM80.9 239.682C80.8914 239.67 80.8755 239.664 80.8531 239.664C80.8306 239.664 80.8022 239.67 80.7693 239.681C80.7364 239.693 80.6997 239.71 80.6613 239.731C80.623 239.752 80.5837 239.778 80.5457 239.806C80.5077 239.833 80.4718 239.863 80.44 239.894C80.4081 239.924 80.3811 239.954 80.3603 239.982C80.3395 240.01 80.3253 240.035 80.3187 240.057C80.3121 240.078 80.313 240.095 80.3216 240.107C80.3301 240.118 80.3461 240.124 80.3685 240.124C80.3909 240.124 80.4194 240.119 80.4523 240.107C80.4852 240.096 80.5219 240.079 80.5603 240.057C80.5986 240.036 80.6379 240.011 80.6759 239.983C80.7139 239.955 80.7498 239.925 80.7816 239.895C80.8134 239.865 80.8405 239.835 80.8613 239.807C80.8821 239.779 80.8963 239.753 80.9029 239.732C80.9095 239.71 80.9085 239.693 80.9 239.682ZM163.701 248.5C163.616 248.693 163.465 248.79 163.247 248.792C163.21 248.792 163.174 248.801 163.142 248.818C163.109 248.834 163.08 248.858 163.059 248.888C163.037 248.917 163.022 248.951 163.016 248.988C163.009 249.024 163.011 249.061 163.021 249.096C164.086 252.869 165.721 256.556 166.375 260.427C166.483 261.068 166.617 261.661 166.777 262.207C167.608 265.02 171.997 261.782 173.166 260.916C176.295 258.603 179.58 256.113 183.019 253.445C184.469 252.319 185.288 251.735 185.719 250.181C185.839 249.747 185.696 249.463 185.291 249.33C184.637 249.116 183.958 248.911 183.254 248.714C181.491 248.219 179.961 247.192 178.496 246.104C178.068 245.786 177.625 245.637 177.168 245.658C177.049 245.664 176.959 245.718 176.899 245.82C176.566 246.385 176.17 246.923 176.182 247.609C176.196 248.332 176.306 249.076 176.063 249.764C175.592 251.103 174.59 251.67 173.056 251.466C172.136 251.344 171.316 251.126 170.597 250.812C168.82 250.04 167.092 249.296 165.411 248.578C164.894 248.358 164.451 248.32 163.895 248.361C163.803 248.369 163.738 248.415 163.701 248.5ZM75.573 245.919C74.7763 246.281 74.0519 246.759 73.3999 247.351C71.9675 248.65 70.3615 249.709 68.7816 250.841C66.7619 252.288 65.1038 254.038 63.3937 255.798C60.8733 258.387 58.0636 260.789 55.3841 263.208C53.4859 264.921 52.0593 266.747 50.627 268.854C49.5072 270.497 48.2658 271.82 47.0244 273.301C45.5892 275.008 44.2784 276.84 42.9068 278.579C41.2401 280.689 39.7556 282.954 38.196 285.156C37.7002 285.855 37.7166 286.558 38.2452 287.266C38.4593 287.555 39.0062 287.723 39.339 287.691C43.011 287.356 46.5875 286.158 49.5564 283.927C52.8956 281.418 56.0294 278.929 58.978 276.102C60.5348 274.607 62.133 273.147 63.7728 271.721C64.9437 270.703 65.996 269.697 66.9297 268.703C68.3514 267.191 70.757 264.468 74.1464 260.534C75.7292 258.697 77.2657 257.169 79.0193 255.618C81.23 253.662 79.5344 251.307 78.5071 249.319C77.8358 248.019 77.0352 246.916 76.1054 246.011C76.0364 245.944 75.9486 245.899 75.8536 245.882C75.7585 245.866 75.6607 245.879 75.573 245.919ZM85.8251 249.501C85.91 249.484 85.9293 249.438 85.883 249.365L85.7152 249.11C85.6929 249.075 85.6593 249.047 85.6195 249.033C85.5797 249.018 85.5361 249.017 85.4952 249.029C85.4065 249.054 85.3313 249.105 85.2695 249.18C85.1789 249.292 85.1982 249.38 85.3274 249.446C85.4837 249.523 85.6496 249.542 85.8251 249.501ZM86.7134 249.906L86.126 250.54C85.9891 250.686 86.018 250.735 86.2129 250.685C86.5389 250.604 86.7057 250.344 86.7134 249.906C86.9237 249.76 87.0443 249.609 87.0752 249.455C87.1002 249.333 87.0597 249.306 86.9536 249.374C86.7588 249.497 86.6787 249.675 86.7134 249.906Z" fill="black"/>
</svg>
